<?xml version="1.0" standalone="no"?>
<!DOCTYPE svg PUBLIC "-//W3C//DTD SVG 20010904//EN"
 "http://www.w3.org/TR/2001/REC-SVG-20010904/DTD/svg10.dtd">
<svg version="1.0" xmlns="http://www.w3.org/2000/svg"
 width="1200.000000pt" height="1200.000000pt" viewBox="0 0 1200.000000 1200.000000"
 preserveAspectRatio="xMidYMid meet">

<g transform="translate(0.000000,1200.000000) scale(0.100000,-0.100000)"
fill="#000000" stroke="none">
<path d="M7404 10785 c-263 -57 -427 -344 -345 -605 106 -338 531 -444 785
-196 193 188 190 500 -6 682 -123 114 -272 154 -434 119z"/>
<path d="M5615 10014 c-255 -38 -401 -81 -590 -174 -177 -88 -299 -175 -441
-315 -139 -137 -244 -278 -321 -431 -139 -274 -192 -496 -193 -802 0 -336 83
-634 254 -910 250 -403 662 -690 1124 -783 135 -27 421 -37 556 -20 497 66
948 347 1221 761 204 310 296 642 282 1023 -9 251 -60 463 -167 684 -112 233
-254 408 -480 593 -210 171 -522 311 -793 355 -91 15 -394 28 -452 19z m430
-698 c297 -77 537 -270 685 -551 l42 -80 -228 -6 c-254 -6 -295 -14 -376 -72
-58 -41 -103 -96 -136 -167 -32 -69 -36 -188 -9 -265 35 -102 128 -195 232
-234 51 -19 77 -21 285 -21 127 0 230 -2 230 -5 0 -14 -77 -157 -115 -215
-202 -303 -597 -490 -955 -451 -143 15 -262 49 -385 111 -593 295 -764 1064
-353 1587 167 212 420 354 698 393 110 15 273 5 385 -24z"/>
<path d="M4363 5902 l-293 -2 0 -47 c0 -202 157 -437 356 -533 133 -64 65 -61
1319 -60 762 0 1158 -3 1195 -10 212 -41 370 -222 370 -425 0 -229 -157 -406
-391 -439 -121 -17 -114 3 -114 -332 l0 -286 25 -20 c23 -18 34 -20 115 -14
305 21 585 191 762 463 75 114 117 216 159 378 27 103 26 379 0 490 -54 220
-147 393 -291 540 -167 171 -361 271 -571 295 -80 9 -1788 10 -2641 2z"/>
<path d="M5290 4150 l0 -350 95 0 95 0 0 58 c0 51 4 62 28 85 15 15 31 27 34
27 4 0 30 -38 58 -85 l51 -85 105 0 c57 0 104 2 104 5 0 3 -39 67 -86 141 -47
75 -87 141 -90 148 -3 7 34 54 81 106 47 51 85 97 85 102 0 4 -45 8 -100 8
-114 0 -99 8 -200 -114 l-65 -79 -5 189 -5 189 -92 3 -93 3 0 -351z"/>
<path d="M4210 4314 c-102 -20 -173 -70 -205 -146 -18 -44 -20 -164 -4 -219
16 -53 60 -103 116 -130 41 -20 63 -23 154 -24 98 0 110 2 165 30 65 34 101
83 106 146 l3 34 -82 3 -82 3 -15 -35 c-17 -42 -42 -56 -96 -56 -30 0 -47 6
-65 25 -23 22 -25 32 -25 108 0 104 14 127 80 134 36 4 51 1 72 -16 15 -12 28
-31 30 -44 3 -20 9 -22 87 -25 46 -2 88 1 93 6 6 6 5 27 -2 53 -15 54 -80 120
-135 136 -47 14 -159 23 -195 17z"/>
<path d="M4833 4310 c-66 -14 -110 -39 -148 -83 -44 -52 -58 -101 -53 -197 4
-105 39 -162 123 -205 54 -28 66 -30 164 -30 64 0 121 5 145 14 50 17 112 74
120 109 4 15 9 35 12 45 5 15 -4 17 -90 17 -77 0 -96 -3 -96 -14 0 -24 -50
-56 -87 -56 -61 0 -102 33 -103 83 l0 27 185 0 c156 0 187 2 191 15 11 29 -15
139 -43 180 -53 77 -200 120 -320 95z m150 -141 c9 -12 17 -30 17 -40 0 -17
-8 -19 -90 -19 -66 0 -90 3 -90 13 0 20 30 57 54 68 32 13 89 2 109 -22z"/>
<path d="M6082 4309 c-90 -15 -156 -65 -168 -127 l-6 -32 92 0 c83 0 94 2 110
22 38 47 140 19 140 -39 0 -21 -4 -23 -52 -23 -196 0 -298 -61 -298 -178 0
-98 50 -137 180 -137 75 0 91 3 135 28 44 25 51 26 61 13 27 -37 116 -55 193
-40 30 6 31 8 31 65 0 56 -1 58 -27 61 l-28 3 -5 140 c-4 115 -9 145 -24 168
-26 39 -82 65 -163 77 -78 11 -98 11 -171 -1z m168 -319 c0 -47 -39 -80 -93
-80 -48 0 -67 13 -67 46 0 37 47 61 123 63 35 1 37 -1 37 -29z"/>
<path d="M4300 3196 c0 -9 7 -16 16 -16 9 0 14 5 12 12 -6 18 -28 21 -28 4z"/>
<path d="M4590 3196 c0 -9 7 -16 16 -16 17 0 14 22 -4 28 -7 2 -12 -3 -12 -12z"/>
<path d="M4096 3125 c-19 -17 -26 -34 -26 -60 0 -78 92 -114 148 -58 34 34 14
42 -28 11 -29 -21 -33 -21 -58 -7 -30 16 -42 70 -21 95 16 19 76 18 87 -2 5
-9 18 -14 28 -12 17 3 17 6 -8 31 -35 35 -85 37 -122 2z"/>
<path d="M4300 3065 c0 -69 3 -85 15 -85 12 0 15 16 15 85 0 69 -3 85 -15 85
-12 0 -15 -16 -15 -85z"/>
<path d="M4382 3142 c2 -5 16 -43 33 -86 20 -51 35 -76 44 -74 14 3 71 127 71
155 0 32 -25 3 -44 -50 -12 -31 -23 -57 -26 -57 -3 0 -16 27 -28 60 -14 36
-30 60 -39 60 -8 0 -13 -4 -11 -8z"/>
<path d="M4590 3066 c0 -71 3 -86 15 -86 13 0 15 14 13 82 -2 54 -7 83 -15 86
-10 3 -13 -18 -13 -82z"/>
<path d="M4725 3138 c-32 -17 -45 -39 -45 -75 0 -76 93 -111 148 -56 32 33 12
46 -22 14 -27 -25 -44 -26 -74 -5 -26 18 -30 65 -6 88 22 22 64 20 90 -5 32
-30 41 -5 10 26 -27 27 -67 32 -101 13z"/>
<path d="M5337 2684 c-13 -13 -7 -24 14 -24 11 0 19 5 17 12 -5 14 -22 21 -31
12z"/>
<path d="M4440 2653 c0 -38 -7 -44 -35 -31 -80 36 -151 -69 -92 -137 22 -26
28 -27 120 -25 l38 1 -3 106 c-2 74 -7 108 -15 111 -9 2 -13 -7 -13 -25z m-12
-85 c27 -57 -31 -108 -83 -74 -50 33 -21 110 39 104 22 -2 35 -11 44 -30z"/>
<path d="M5220 2649 c0 -7 -8 -18 -17 -25 -17 -12 -17 -13 0 -19 13 -6 17 -19
17 -64 0 -62 11 -81 47 -81 28 0 30 16 3 23 -17 4 -20 14 -20 61 0 49 2 56 20
56 11 0 20 5 20 11 0 6 -9 13 -20 16 -11 3 -20 12 -20 19 0 8 -7 14 -15 14 -8
0 -15 -5 -15 -11z"/>
<path d="M4114 2616 c-35 -15 -44 -33 -44 -79 1 -74 85 -108 143 -59 9 8 17
19 17 24 0 13 -27 9 -40 -7 -16 -20 -54 -19 -74 1 -27 27 -18 33 51 36 78 3
90 18 51 61 -29 33 -64 41 -104 23z m82 -33 c17 -17 15 -18 -35 -21 -60 -4
-69 1 -51 23 17 20 64 19 86 -2z"/>
<path d="M4530 2562 c0 -76 17 -105 62 -103 13 0 40 1 61 2 l38 1 -3 81 c-2
53 -7 82 -15 85 -9 2 -13 -10 -13 -42 0 -61 -14 -94 -45 -102 -39 -10 -54 10
-57 79 -2 37 -8 62 -15 65 -10 3 -13 -15 -13 -66z"/>
<path d="M4790 2618 c-80 -43 -53 -158 38 -158 41 0 82 23 82 46 0 20 -16 18
-40 -6 -51 -51 -125 15 -85 76 19 30 65 32 90 4 21 -23 35 -26 35 -7 0 38 -77
67 -120 45z"/>
<path d="M5015 2618 c-32 -17 -45 -39 -45 -78 0 -50 35 -82 87 -81 21 1 50 2
66 2 l27 0 0 79 c0 73 -10 105 -25 81 -4 -7 -15 -7 -31 -1 -32 13 -54 12 -79
-2z m89 -40 c21 -30 20 -54 -4 -78 -41 -41 -100 -13 -100 46 0 54 73 76 104
32z"/>
<path d="M5337 2624 c-4 -4 -7 -43 -7 -86 0 -72 2 -78 20 -78 20 0 21 5 18 82
-3 75 -12 100 -31 82z"/>
<path d="M5474 2616 c-35 -15 -44 -32 -44 -80 0 -98 157 -108 176 -11 7 42
-14 81 -52 95 -32 13 -42 12 -80 -4z m90 -38 c21 -30 20 -54 -4 -78 -39 -39
-100 -14 -100 41 0 56 73 82 104 37z"/>
<path d="M5677 2624 c-4 -4 -7 -43 -7 -86 0 -63 3 -78 15 -78 12 0 15 13 15
58 0 65 11 82 52 82 34 0 48 -28 48 -96 0 -29 4 -44 13 -44 9 0 11 17 7 68 -3
37 -9 72 -13 79 -11 17 -63 26 -85 14 -12 -6 -22 -7 -29 0 -5 5 -12 6 -16 3z"/>
<path d="M4080 2039 c0 -84 3 -110 13 -107 6 3 13 18 15 34 6 47 17 48 51 5
32 -41 51 -51 51 -30 0 6 -14 29 -31 51 l-32 39 34 35 c30 31 31 34 12 34 -13
0 -34 -16 -52 -37 l-31 -38 0 63 c0 48 -3 62 -15 62 -12 0 -15 -19 -15 -111z"/>
<path d="M4323 2102 c-31 -5 -63 -49 -63 -86 0 -37 29 -73 66 -82 32 -8 94 19
94 41 0 19 -9 19 -34 0 -26 -19 -61 -19 -80 1 -28 27 -18 34 54 34 66 0 70 1
70 23 -1 45 -52 78 -107 69z m63 -39 c17 -17 16 -18 -14 -21 -18 -2 -44 -2
-59 0 -26 3 -26 4 -9 21 10 9 28 17 41 17 13 0 31 -8 41 -17z"/>
<path d="M4557 2103 c-4 -3 -20 -6 -37 -5 l-31 1 3 -81 c2 -54 7 -83 16 -86 9
-3 12 13 12 56 0 64 17 92 58 92 29 0 42 -29 42 -95 0 -66 23 -74 28 -9 5 58
-14 113 -44 124 -30 12 -38 12 -47 3z"/>
<path d="M4700 2099 c0 -6 14 -43 30 -83 25 -60 29 -78 20 -100 -13 -35 -13
-36 4 -36 8 0 30 42 55 106 44 114 47 124 30 124 -9 0 -20 -21 -51 -100 -10
-24 -12 -22 -39 38 -25 55 -49 80 -49 51z"/>
<path d="M4954 2100 c-12 -5 -29 -19 -38 -32 -50 -71 37 -169 114 -128 13 7
21 7 25 0 17 -27 25 -2 25 75 0 82 -1 85 -22 84 -13 -1 -36 1 -53 5 -16 3 -40
1 -51 -4z m78 -37 c22 -20 23 -61 1 -85 -34 -38 -103 -11 -103 40 0 54 62 81
102 45z"/>
<path d="M4133 1593 c-29 -5 -63 -49 -63 -79 0 -70 71 -116 131 -84 13 7 19 7
19 0 0 -5 7 -10 15 -10 12 0 15 16 15 85 l0 84 -27 -1 c-16 -1 -37 0 -48 3
-11 4 -30 4 -42 2z m67 -43 c24 -24 26 -57 3 -82 -34 -38 -103 -11 -103 40 0
56 61 81 100 42z"/>
<path d="M4375 1590 c-11 -4 -30 -6 -43 -3 -23 5 -23 5 -20 -103 2 -75 7 -109
16 -112 8 -2 12 7 12 27 0 31 14 49 25 31 13 -21 66 -10 97 20 26 27 30 36 25
67 -10 58 -63 93 -112 73z m75 -52 c13 -25 13 -31 0 -55 -22 -39 -72 -44 -95
-10 -18 29 -12 72 14 87 28 17 64 7 81 -22z"/>
<path d="M4617 1594 c-4 -4 -20 -7 -37 -6 l-30 1 0 -111 c0 -83 3 -109 13
-106 6 3 14 20 17 39 3 22 8 30 13 22 5 -7 23 -13 41 -13 73 0 112 89 64 144
-24 26 -68 43 -81 30z m55 -41 c22 -20 24 -66 2 -87 -35 -35 -94 -9 -94 41 0
54 54 81 92 46z"/>
</g>
</svg>
